<svg width="20" height="20" viewBox="0 0 20 20" fill="none" xmlns="http://www.w3.org/2000/svg">
<path fill-rule="evenodd" clip-rule="evenodd" d="M18.332 9.99984C18.332 10.1812 18.2582 10.3547 18.1274 10.4804L13.7941 14.6471C13.5287 14.9023 13.1067 14.894 12.8515 14.6286C12.5963 14.3632 12.6046 13.9411 12.87 13.6859L16.0102 10.6665L2.33268 10.6665C1.96449 10.6665 1.66602 10.368 1.66602 9.99984C1.66602 9.63165 1.96449 9.33317 2.33268 9.33317L16.0102 9.33317L12.87 6.31373C12.6046 6.05853 12.5963 5.6365 12.8515 5.3711C13.1067 5.1057 13.5287 5.09742 13.7941 5.35262L18.1274 9.51928C18.2582 9.64497 18.332 9.81849 18.332 9.99984Z" fill="#33363D"/>
</svg>
