<svg width="32" height="32" viewBox="0 0 32 32" fill="none" xmlns="http://www.w3.org/2000/svg">
<path fill-rule="evenodd" clip-rule="evenodd" d="M10.4 2.6665C10.9891 2.6665 11.4667 3.14407 11.4667 3.73317V6.66656L20.5312 6.66667V3.73317C20.5312 3.14407 21.0088 2.6665 21.5979 2.6665C22.187 2.6665 22.6646 3.14407 22.6646 3.73317V6.6667L25.599 6.66673C26.9245 6.66675 27.999 7.74126 27.999 9.06673V25.6001C27.999 26.9256 26.9244 28.0001 25.599 28.0001H6.4C5.07452 28.0001 4 26.9256 4 25.6001V9.0665C4 7.74101 5.07453 6.66649 6.40003 6.6665L9.33333 6.66654V3.73317C9.33333 3.14407 9.8109 2.6665 10.4 2.6665ZM6.4 8.79984C6.25273 8.79984 6.13333 8.91923 6.13333 9.0665V12.2668H25.8656V9.06673C25.8656 8.91946 25.7462 8.80007 25.599 8.80007L6.4 8.79984ZM6.13333 25.6001V14.4001H25.8656V25.6001C25.8656 25.7474 25.7462 25.8667 25.599 25.8667H6.4C6.25272 25.8667 6.13333 25.7474 6.13333 25.6001ZM10.1354 18.6665C9.39904 18.6665 8.80208 19.2635 8.80208 19.9998C8.80208 20.7362 9.39904 21.3332 10.1354 21.3332C10.8718 21.3332 11.4688 20.7362 11.4688 19.9998C11.4688 19.2635 10.8718 18.6665 10.1354 18.6665ZM16 18.6665C15.2636 18.6665 14.6667 19.2635 14.6667 19.9998C14.6667 20.7362 15.2636 21.3332 16 21.3332C16.7364 21.3332 17.3333 20.7362 17.3333 19.9998C17.3333 19.2635 16.7364 18.6665 16 18.6665ZM20.5365 19.9998C20.5365 19.2635 21.1334 18.6665 21.8698 18.6665C22.6062 18.6665 23.2031 19.2635 23.2031 19.9998C23.2031 20.7362 22.6062 21.3332 21.8698 21.3332C21.1334 21.3332 20.5365 20.7362 20.5365 19.9998Z" fill="#33363D"/>
</svg>
