<svg width="16" height="16" viewBox="0 0 16 16" fill="none" xmlns="http://www.w3.org/2000/svg">
<path fill-rule="evenodd" clip-rule="evenodd" d="M8.38262 10.703C8.28207 10.8076 8.14325 10.8667 7.99818 10.8667C7.8531 10.8667 7.71429 10.8076 7.61373 10.703L4.2804 7.23632C4.07624 7.024 4.08286 6.68638 4.29519 6.48222C4.50751 6.27807 4.84513 6.28469 5.04929 6.49701L7.46484 9.00919V2.53333C7.46484 2.23878 7.70363 2 7.99818 2C8.29273 2 8.53151 2.23878 8.53151 2.53333V9.00919L10.9471 6.49701C11.1512 6.28469 11.4888 6.27807 11.7012 6.48222C11.9135 6.68638 11.9201 7.024 11.716 7.23632L8.38262 10.703ZM2.39922 10.6671C2.39929 10.3725 2.16057 10.1337 1.86602 10.1336C1.57146 10.1335 1.33262 10.3722 1.33255 10.6668L1.33203 12.8001C1.332 12.9416 1.38817 13.0773 1.48819 13.1773C1.58822 13.2774 1.72389 13.3336 1.86536 13.3336H14.1315C14.4261 13.3336 14.6648 13.0948 14.6648 12.8003V10.6669C14.6648 10.3724 14.4261 10.1336 14.1315 10.1336C13.837 10.1336 13.5982 10.3724 13.5982 10.6669V12.2669H2.39883L2.39922 10.6671Z" fill="#33363D"/>
</svg>
