<svg width="32" height="32" viewBox="0 0 32 32" fill="none" xmlns="http://www.w3.org/2000/svg">
<path fill-rule="evenodd" clip-rule="evenodd" d="M13.5397 4.97675C13.9161 5.20383 14.2684 5.46594 14.5922 5.75874C15.154 6.26676 15.6303 6.86715 15.9992 7.53714C16.3681 6.86715 16.8444 6.26676 17.4062 5.75874C17.7301 5.46594 18.0823 5.20383 18.4588 4.97675C19.4884 4.3557 20.6629 4.01877 21.8635 4C23.7775 4.0836 25.5807 4.92529 26.8793 6.34119C28.1779 7.75709 28.8663 9.63211 28.7941 11.5566C28.7941 18.8185 17.1124 27.2079 16.6155 27.5616L15.9992 28L15.3829 27.5616C14.8861 27.2058 3.20438 18.8185 3.20438 11.5566C3.13214 9.63211 3.82052 7.75709 5.11911 6.34119C6.4177 4.92529 8.22096 4.0836 10.1349 4C11.3356 4.01877 12.51 4.3557 13.5397 4.97675ZM19.5606 6.80352C20.2499 6.38776 21.0328 6.15783 21.834 6.13448C23.1576 6.20891 24.4039 6.7984 25.3071 7.78315C26.2251 8.78404 26.7135 10.1118 26.6622 11.4766L26.6607 11.5166V11.5566C26.6607 12.8225 26.1403 14.3154 25.1384 15.9626C25.0767 16.064 25.0136 16.1654 24.9491 16.2667H20.57L18.22 12.7417C18.0003 12.4121 17.616 12.2314 17.2221 12.2724C16.8281 12.3135 16.4893 12.5694 16.3421 12.9372L14.2763 18.1019L12.7534 16.5791C12.5534 16.3791 12.2821 16.2667 11.9992 16.2667H7.04959C6.985 16.1653 6.92178 16.0638 6.86 15.9622C5.85808 14.3152 5.33771 12.8224 5.33771 11.5566V11.5166L5.33621 11.4766C5.28498 10.1118 5.77336 8.78404 6.69133 7.78315C7.59449 6.7984 8.84079 6.20891 10.1644 6.13448C10.9656 6.15783 11.7485 6.38776 12.4378 6.80352C13.1452 7.23018 13.7294 7.83779 14.1304 8.56605L15.9992 11.9603L17.868 8.56605C18.269 7.83779 18.8532 7.23018 19.5606 6.80352ZM8.6046 18.4C9.23941 19.1784 9.92731 19.9363 10.6324 20.6571C12.7718 22.8442 14.9527 24.5727 15.9996 25.3648C17.0439 24.5751 19.2257 22.8461 21.366 20.658C22.0712 19.9369 22.7593 19.1787 23.3943 18.4H19.9992C19.6425 18.4 19.3095 18.2218 19.1117 17.925L17.5698 15.6122L15.6562 20.3962C15.5231 20.7291 15.2316 20.9728 14.8803 21.0449C14.5291 21.117 14.1651 21.0078 13.9116 20.7543L11.5574 18.4H8.6046Z" fill="#303336"/>
</svg>
