<svg width="24" height="24" viewBox="0 0 24 24" fill="none" xmlns="http://www.w3.org/2000/svg">
<path d="M12.7703 2.77886C12.7703 2.34871 12.4216 2 11.9914 2C11.5613 2 11.2126 2.34871 11.2126 2.77886V5.39292C11.2126 5.82307 11.5613 6.17178 11.9914 6.17178C12.4216 6.17178 12.7703 5.82307 12.7703 5.39292V2.77886Z" fill="white"/>
<path d="M4.10454 4.07271C3.78674 3.78282 3.29411 3.80544 3.00422 4.12324C2.71433 4.44103 2.73696 4.93366 3.05475 5.22355L5.2177 7.19656C5.5355 7.48645 6.02812 7.46382 6.31801 7.14603C6.6079 6.82823 6.58528 6.3356 6.26748 6.04571L4.10454 4.07271Z" fill="white"/>
<path d="M20.928 5.22354C21.2458 4.93364 21.2684 4.44102 20.9785 4.12322C20.6886 3.80543 20.1959 3.78282 19.8782 4.07272L17.7153 6.04572C17.3975 6.33562 17.3749 6.82825 17.6648 7.14604C17.9547 7.46383 18.4473 7.48644 18.7651 7.19655L20.928 5.22354Z" fill="white"/>
<path d="M17.8662 14.5C18.5369 14.5 19.017 13.8535 18.8243 13.2112L17.6229 9.2067C17.4959 8.78324 17.1061 8.49324 16.664 8.49324H7.3416C6.89949 8.49324 6.50973 8.78324 6.38269 9.20669L5.18135 13.2112C4.98865 13.8535 5.46875 14.5 6.13937 14.5H17.8662Z" fill="white"/>
<path d="M20.0202 21.0003H3.98623C3.37818 21.0003 3.07416 21.0003 2.87124 20.8734C2.69353 20.7624 2.56414 20.5885 2.5088 20.3863C2.44561 20.1555 2.53297 19.8643 2.70769 19.2819L3.35763 17.1154C3.45115 16.8037 3.49791 16.6478 3.58645 16.5295C3.68337 16.3999 3.81589 16.3013 3.96786 16.2457C4.10669 16.1949 4.26942 16.1949 4.59487 16.1949H19.4115C19.737 16.1949 19.8997 16.1949 20.0385 16.2457C20.1905 16.3013 20.323 16.3999 20.4199 16.5295C20.5085 16.6479 20.5552 16.8037 20.6488 17.1154L21.2987 19.2819C21.4734 19.8643 21.5608 20.1555 21.4976 20.3863C21.4422 20.5885 21.3129 20.7624 21.1351 20.8734C20.9322 21.0003 20.6282 21.0003 20.0202 21.0003Z" fill="white"/>
</svg>
