<svg width="16" height="16" viewBox="0 0 16 16" fill="none" xmlns="http://www.w3.org/2000/svg">
<path fill-rule="evenodd" clip-rule="evenodd" d="M5.78985 2.85239C4.58311 3.3709 3.59519 4.30133 3.00307 5.46672H4.73104C4.89062 4.74284 5.11757 4.08342 5.39983 3.51889C5.51676 3.28504 5.64695 3.06093 5.78985 2.85239ZM2.59269 6.53338C2.46619 7.00081 2.3987 7.49248 2.3987 7.99992C2.3987 8.50914 2.46666 9.00248 2.59402 9.47138C2.61719 9.4683 2.64083 9.46672 2.66484 9.46672H4.55114C4.49451 8.99403 4.46484 8.50287 4.46484 8.00005C4.46484 7.49723 4.49451 7.00607 4.55114 6.53338H2.59269ZM3.0032 10.5334C3.59529 11.6986 4.58306 12.6288 5.7896 13.1473C5.6468 12.9389 5.51669 12.7149 5.39983 12.4812C5.11757 11.9167 4.89062 11.2573 4.73104 10.5334H3.0032ZM10.2063 13.148C11.4135 12.6296 12.4019 11.699 12.9942 10.5334H11.2653C11.1057 11.2573 10.8788 11.9167 10.5965 12.4812C10.4795 12.7152 10.3493 12.9394 10.2063 13.148ZM13.4033 9.47151C13.5307 9.00258 13.5987 8.50919 13.5987 7.99992C13.5987 7.49248 13.5312 7.00081 13.4047 6.53338H11.4452C11.5018 7.00607 11.5315 7.49723 11.5315 8.00005C11.5315 8.50287 11.5018 8.99403 11.4452 9.46672H13.3315C13.3559 9.46672 13.3798 9.46835 13.4033 9.47151ZM12.9943 5.46672C12.402 4.30086 11.4135 3.37014 10.2061 2.85176C10.3491 3.06048 10.4795 3.2848 10.5965 3.51889C10.8788 4.08342 11.1057 4.74284 11.2653 5.46672H12.9943ZM7.9987 1.33325C4.3168 1.33325 1.33203 4.31802 1.33203 7.99992C1.33203 11.6818 4.3168 14.6666 7.9987 14.6666C11.6806 14.6666 14.6654 11.6818 14.6654 7.99992C14.6654 4.31802 11.6806 1.33325 7.9987 1.33325ZM5.82645 5.46672C5.9635 4.91389 6.14306 4.41756 6.35388 3.99592C6.86843 2.96683 7.48059 2.53338 7.99818 2.53338C8.51576 2.53338 9.12792 2.96683 9.64247 3.99592C9.85329 4.41756 10.0329 4.91389 10.1699 5.46672H5.82645ZM6.35388 12.0042C6.14306 11.5825 5.9635 11.0862 5.82645 10.5334H10.1699C10.0329 11.0862 9.85329 11.5825 9.64247 12.0042C9.12792 13.0333 8.51576 13.4667 7.99818 13.4667C7.48059 13.4667 6.86843 13.0333 6.35388 12.0042ZM5.53151 8.00005C5.53151 8.50972 5.56469 9.00124 5.62618 9.46672H10.3702C10.4317 9.00124 10.4648 8.50972 10.4648 8.00005C10.4648 7.49038 10.4317 6.99886 10.3702 6.53338H5.62618C5.56469 6.99886 5.53151 7.49038 5.53151 8.00005Z" fill="#33363D"/>
</svg>
