<svg width="33" height="32" viewBox="0 0 33 32" fill="none" xmlns="http://www.w3.org/2000/svg">
<path fill-rule="evenodd" clip-rule="evenodd" d="M15.0044 12.5333H17.4044V6.13333H15.0044V12.5333ZM14.2044 4C13.468 4 12.8711 4.59695 12.8711 5.33333V9.33333H4.20443C3.46805 9.33333 2.87109 9.93029 2.87109 10.6667V28C2.87109 28.7364 3.46805 29.3333 4.20443 29.3333H28.2044C28.9408 29.3333 29.5378 28.7364 29.5378 28V10.6667C29.5378 9.93029 28.9408 9.33333 28.2044 9.33333H19.5378V5.33333C19.5378 4.59695 18.9408 4 18.2044 4H14.2044ZM5.00443 11.4667H12.8711V13.3333C12.8711 14.0697 13.468 14.6667 14.2044 14.6667H18.2044C18.9408 14.6667 19.5378 14.0697 19.5378 13.3333V11.4667H27.4044V27.2H5.00443V11.4667ZM12.2711 19.8667C13.2652 19.8667 14.0711 19.0608 14.0711 18.0667C14.0711 17.0726 13.2652 16.2667 12.2711 16.2667C11.277 16.2667 10.4711 17.0726 10.4711 18.0667C10.4711 19.0608 11.277 19.8667 12.2711 19.8667ZM24.2044 19.7333H18.8711V17.6H24.2044V19.7333ZM8.20443 22.8C8.20443 21.6954 9.09986 20.8 10.2044 20.8H12.2044H14.2044C15.309 20.8 16.2044 21.6954 16.2044 22.8V24H8.20443V22.8ZM24.2044 23.7333H18.8711V21.6H24.2044V23.7333Z" fill="#303336"/>
</svg>
