<svg width="21" height="20" viewBox="0 0 21 20" fill="none" xmlns="http://www.w3.org/2000/svg">
<path fill-rule="evenodd" clip-rule="evenodd" d="M6.83464 6.49992C6.83464 5.4874 7.65545 4.66659 8.66797 4.66659C9.68049 4.66659 10.5013 5.4874 10.5013 6.49992C10.5013 7.51244 9.68049 8.33325 8.66797 8.33325C7.65545 8.33325 6.83464 7.51244 6.83464 6.49992ZM8.66797 3.33325C6.91907 3.33325 5.5013 4.75102 5.5013 6.49992C5.5013 8.24882 6.91907 9.66659 8.66797 9.66659C10.4169 9.66659 11.8346 8.24882 11.8346 6.49992C11.8346 4.75102 10.4169 3.33325 8.66797 3.33325ZM13.668 7.25008C13.2998 7.25008 13.0013 7.54856 13.0013 7.91675C13.0013 8.28494 13.2998 8.58342 13.668 8.58342H15.2507V10.1667C15.2507 10.5349 15.5491 10.8334 15.9173 10.8334C16.2855 10.8334 16.584 10.5349 16.584 10.1667V8.58342H18.1673C18.5355 8.58342 18.834 8.28494 18.834 7.91675C18.834 7.54856 18.5355 7.25008 18.1673 7.25008H16.584V5.66659C16.584 5.2984 16.2855 4.99992 15.9173 4.99992C15.5491 4.99992 15.2507 5.2984 15.2507 5.66659V7.25008H13.668ZM13.7019 12.0003C10.6131 10.6324 7.0985 10.5913 3.97863 11.8866L3.6066 12.0411C2.73564 12.4027 2.16797 13.253 2.16797 14.1961V16.0001C2.16797 16.3683 2.46645 16.6668 2.83464 16.6668H14.5013C14.8695 16.6668 15.168 16.3683 15.168 16.0001V14.1681C15.168 13.2449 14.6236 12.4085 13.7795 12.0347L13.7019 12.0003ZM4.48989 13.1181C7.27247 11.9628 10.4071 11.9994 13.162 13.2194L13.2396 13.2538C13.6013 13.414 13.8346 13.7725 13.8346 14.1681V15.3334H3.5013V14.1961C3.5013 13.7919 3.74459 13.4275 4.11786 13.2725L4.48989 13.1181Z" fill="#33363D"/>
</svg>
