<svg width="200" height="48" viewBox="0 0 200 48" fill="none" xmlns="http://www.w3.org/2000/svg">
<g clip-path="url(#clip0_9064_25402)">
<path d="M48.2745 23.8054C48.2745 36.9543 37.4695 47.6108 24.1373 47.6108C10.805 47.6108 0 36.9543 0 23.8054C0 10.6564 10.805 0 24.1373 0C37.4695 0 48.2745 10.6564 48.2745 23.8054Z" fill="white"/>
<path d="M35.4881 22.1487C31.6443 19.5742 26.7261 20.6264 24.1459 24.4919C21.997 27.7307 18.7434 28.1336 17.4873 28.1336C13.3711 28.1336 10.5715 25.283 9.73163 22.3353C9.73163 22.3353 9.7165 22.2756 9.70893 22.2532C9.70136 22.2233 9.6938 22.186 9.68623 22.1562C9.36087 20.9249 9.27764 20.3353 9.27764 19.0294C9.27764 11.9773 16.6172 4.12677 27.1725 4.12677C37.7278 4.12677 44.1821 12.246 45.7786 16.7608C45.7484 16.6787 45.7181 16.5966 45.6954 16.522C42.6158 7.68639 34.1262 1.34326 24.1308 1.34326C11.5552 1.34326 1.35547 11.3953 1.35547 23.8054C1.35547 34.8947 9.4668 44.387 20.7182 44.387C29.6922 44.387 35.7227 39.4244 38.4845 32.5887C40.0054 28.85 38.9309 24.4546 35.4881 22.1487Z" fill="#003964"/>
<path d="M45.9065 17.1937C44.5748 12.7908 38.3399 4.11938 27.1566 4.11938C16.5937 4.11938 9.26172 11.9699 9.26172 19.022C9.26172 20.3279 9.34495 20.9175 9.67031 22.1488C9.53411 21.6115 9.46602 21.0742 9.46602 20.5443C9.46602 13.2012 16.9191 8.11928 24.5764 8.11928C34.9501 8.11928 43.3565 16.4101 43.3565 26.6412C43.3565 34.6559 38.6804 41.6035 31.8857 44.9393C40.6477 41.8125 46.9053 33.5366 46.9053 23.8129C46.9053 21.5145 46.595 19.4847 45.9065 17.2011" fill="#ED1A3B"/>
<path d="M62.3023 16.4921H69.0441V14.022H59.4648V32.0141H69.3241V29.5664H62.3023V16.4921Z" fill="#575756"/>
<path d="M76.733 21.8801H73.6913V12.634H71.043V34.9842H73.6913V24.2755H76.733V35.1111H79.4418V12.634H76.733V21.8801Z" fill="#575756"/>
<path d="M86.865 27.8276H84.0352V34.6558H102.407V32.2156H86.865V27.8276Z" fill="#575756"/>
<path d="M101.916 12.634H99.0781V27.0217H101.916V21.201H105.184V18.7607H101.916V12.634Z" fill="#575756"/>
<path d="M96.7753 14.3204H91.3879V12.1787H88.3688V14.3204H83.0117V16.7159H96.7753V14.3204Z" fill="#575756"/>
<path d="M91.9411 17.6637C91.298 17.4025 90.617 17.2756 89.883 17.2756C89.1491 17.2756 88.4605 17.41 87.8249 17.6637C87.1818 17.9249 86.6294 18.2756 86.1527 18.7084C85.676 19.1413 85.2977 19.6562 85.0177 20.2457C84.7378 20.8352 84.6016 21.4621 84.6016 22.1337C84.6016 22.8053 84.7378 23.4247 85.0177 23.9993C85.2977 24.574 85.676 25.0814 86.1527 25.5366C86.6294 25.9694 87.1893 26.3202 87.8249 26.5664C88.4605 26.8202 89.1491 26.947 89.883 26.947C90.617 26.947 91.298 26.8202 91.9411 26.5664C92.5767 26.3127 93.1442 25.9694 93.6436 25.5366C94.1051 25.0814 94.4759 24.574 94.7483 23.9993C95.0283 23.4247 95.172 22.8053 95.172 22.1337C95.172 21.4621 95.0283 20.8352 94.7483 20.2457C94.4683 19.6562 94.0976 19.1413 93.6436 18.7084C93.1518 18.2681 92.5843 17.9249 91.9411 17.6637ZM91.699 23.865C91.2072 24.3426 90.6094 24.5814 89.9133 24.5814C89.2172 24.5814 88.6194 24.3426 88.1276 23.865C87.6357 23.3874 87.386 22.8053 87.386 22.1113C87.386 21.4173 87.6357 20.8352 88.1276 20.3353C88.6194 19.8353 89.2172 19.589 89.9133 19.589C90.6094 19.589 91.2072 19.8353 91.699 20.3353C92.1908 20.8352 92.4405 21.4248 92.4405 22.1113C92.4405 22.7979 92.1908 23.38 91.699 23.865Z" fill="#575756"/>
<path d="M119.877 13.4175H108.148V24.8351H119.877V13.4175ZM117.092 22.4396H110.963V15.8353H117.092V22.4396Z" fill="#575756"/>
<path d="M127.283 12.634H124.445V27.0217H127.283V12.634Z" fill="#575756"/>
<path d="M111.62 27.1487H108.812V34.656H127.487V32.1859H111.62V27.1487Z" fill="#575756"/>
<path d="M147.283 19.7904H150.12V13.0891H132.543V15.5592H147.283V19.7904Z" fill="#575756"/>
<path d="M130.855 24.0218H139.928V27.3277H132.286V29.7679H147.282V35.1633H150.12V27.3277H142.735V24.0218H151.807V21.5815H130.855V24.0218Z" fill="#575756"/>
<path d="M171.866 17.0966H167.621V19.4921H171.866V24.5516H174.703V12.634H171.866V17.0966Z" fill="#575756"/>
<path d="M171.019 26.447C170.489 25.9396 169.861 25.5441 169.142 25.253C168.416 24.962 167.644 24.8127 166.827 24.8127C166.01 24.8127 165.26 24.962 164.526 25.253C163.793 25.5441 163.164 25.947 162.635 26.447C162.105 26.9545 161.689 27.5366 161.371 28.2007C161.053 28.8649 160.895 29.5738 160.895 30.3275C160.895 31.0812 161.053 31.7902 161.371 32.4543C161.689 33.1185 162.105 33.7006 162.635 34.208C163.164 34.7155 163.793 35.111 164.526 35.402C165.253 35.6931 166.025 35.8423 166.827 35.8423C167.629 35.8423 168.416 35.6931 169.142 35.402C169.861 35.111 170.489 34.708 171.019 34.208C171.548 33.708 171.972 33.1185 172.282 32.4543C172.6 31.7902 172.751 31.0812 172.751 30.3275C172.751 29.5738 172.592 28.8574 172.282 28.2007C171.972 27.5366 171.548 26.9545 171.019 26.447ZM169.044 32.4842C168.423 33.0812 167.674 33.3797 166.804 33.3797C165.934 33.3797 165.223 33.0812 164.61 32.4842C163.997 31.8872 163.687 31.1633 163.687 30.3051C163.687 29.447 163.997 28.7455 164.61 28.141C165.223 27.5366 165.957 27.2306 166.804 27.2306C167.651 27.2306 168.416 27.5291 169.044 28.141C169.664 28.7455 169.974 29.4693 169.974 30.3051C169.974 31.1409 169.664 31.8872 169.044 32.4842Z" fill="#575756"/>
<path d="M165.986 24.1038L167.953 22.4844L162.18 15.507H167.726V13.0891H154.697V15.507H160.402L154.613 22.865L156.664 24.4769L161.287 18.3576L165.986 24.1038Z" fill="#575756"/>
<path d="M177.852 26.8352V29.2978H186.894V35.0962H189.731V29.2978H198.803V26.8352H177.852Z" fill="#575756"/>
<path d="M197.116 12.9998H194.301V15.843H182.324V12.9998H179.539V23.8055H197.116V12.9998ZM182.324 18.2683H194.301V21.3652H182.324V18.2683Z" fill="#575756"/>
</g>
<defs>
<clipPath id="clip0_9064_25402">
<rect width="200" height="47.76" fill="white"/>
</clipPath>
</defs>
</svg>
