<svg width="33" height="32" viewBox="0 0 33 32" fill="none" xmlns="http://www.w3.org/2000/svg">
<path fill-rule="evenodd" clip-rule="evenodd" d="M22.4852 10.6944L13.9352 3.97656L3.53516 12.148V27.7331H11.9352V25.5998H5.66849V13.1849L13.9352 6.68963L19.6496 11.1796C20.3423 10.8505 21.1172 10.6664 21.9351 10.6664C22.1209 10.6664 22.3044 10.6759 22.4852 10.6944ZM21.9351 17.8664C22.9661 17.8664 23.8018 17.0307 23.8018 15.9998C23.8018 14.9688 22.9661 14.1331 21.9351 14.1331C20.9042 14.1331 20.0685 14.9688 20.0685 15.9998C20.0685 17.0307 20.9042 17.8664 21.9351 17.8664ZM21.9351 19.9998C24.1443 19.9998 25.9351 18.2089 25.9351 15.9998C25.9351 13.7906 24.1443 11.9998 21.9351 11.9998C19.726 11.9998 17.9351 13.7906 17.9351 15.9998C17.9351 18.2089 19.726 19.9998 21.9351 19.9998ZM27.3422 22.6191C23.9066 21.0575 19.9637 21.0575 16.5281 22.6191L15.7236 22.9848C14.3908 23.5906 13.5352 24.9195 13.5352 26.3835V27.7331H30.3352V26.3835C30.3352 24.9195 29.4795 23.5906 28.1467 22.9848L27.3422 22.6191ZM17.4109 24.5612C20.2856 23.2546 23.5848 23.2546 26.4594 24.5612L27.2639 24.9269C27.5799 25.0706 27.8333 25.3091 27.9967 25.5997H15.8736C16.037 25.3091 16.2904 25.0706 16.6064 24.9269L17.4109 24.5612Z" fill="#303336"/>
</svg>
