<svg width="21" height="20" viewBox="0 0 21 20" fill="none" xmlns="http://www.w3.org/2000/svg">
<path fill-rule="evenodd" clip-rule="evenodd" d="M17.3327 2.5C17.5095 2.5 17.6791 2.57023 17.8041 2.69526C17.9291 2.82028 17.9994 2.98985 17.9994 3.16667V16.8357C17.9994 17.2039 17.7009 17.5023 17.3327 17.5023H11.1667C10.7985 17.5023 10.5 17.2039 10.5 16.8357C10.5 16.4675 10.7985 16.169 11.1667 16.169H16.666V3.83335L11.1667 3.8335C10.7985 3.83351 10.5 3.53504 10.5 3.16685C10.5 2.79866 10.7985 2.50017 11.1667 2.50016L17.3327 2.5ZM13.4621 10.4807C13.5928 10.355 13.6667 10.1815 13.6667 10.0002C13.6667 9.81882 13.5928 9.6453 13.4621 9.51961L9.12874 5.35294C8.86334 5.09775 8.44131 5.10602 8.18611 5.37142C7.93092 5.63683 7.93919 6.05886 8.2046 6.31405L11.3448 9.3335H3.33464C2.96645 9.3335 2.66797 9.63197 2.66797 10.0002C2.66797 10.3684 2.96645 10.6668 3.33464 10.6668H11.3448L8.20459 13.6863C7.93919 13.9415 7.93092 14.3635 8.18611 14.6289C8.44131 14.8943 8.86334 14.9026 9.12874 14.6474L13.4621 10.4807Z" fill="#33363D"/>
</svg>
