<svg width="32" height="32" viewBox="0 0 32 32" fill="none" xmlns="http://www.w3.org/2000/svg">
<path fill-rule="evenodd" clip-rule="evenodd" d="M27.2662 4.45C27.5593 4.64843 27.7349 4.97933 27.7349 5.33327V24.6666C27.7349 25.1377 27.4259 25.5529 26.9747 25.6883L20.3081 27.6883C20.0976 27.7514 19.8727 27.748 19.6643 27.6785L12.0168 25.1294L5.39055 27.5389C4.52098 27.8552 3.60156 27.2112 3.60156 26.2859V7.99994C3.60156 7.5514 3.88217 7.15078 4.3037 6.99749L11.637 4.33083C11.8632 4.24858 12.1106 4.24524 12.3389 4.32134L19.9682 6.86445L26.2721 4.3429C26.6007 4.21145 26.9731 4.25157 27.2662 4.45ZM5.7349 8.74706L10.9349 6.85615V23.2528L5.7349 25.1437V8.74706ZM18.9349 25.1867L13.0682 23.2311V6.81319L18.9349 8.76875V25.1867ZM21.0682 25.233L25.6016 23.873V6.90878L21.0682 8.72211V25.233Z" fill="#303336"/>
</svg>
