<svg width="20" height="21" viewBox="0 0 20 21" fill="none" xmlns="http://www.w3.org/2000/svg">
<path fill-rule="evenodd" clip-rule="evenodd" d="M1.83203 5.50016C1.83203 5.13197 2.13051 4.8335 2.4987 4.8335H17.4987C17.8669 4.8335 18.1654 5.13197 18.1654 5.50016C18.1654 5.86835 17.8669 6.16683 17.4987 6.16683H2.4987C2.13051 6.16683 1.83203 5.86835 1.83203 5.50016ZM1.83203 10.5002C1.83203 10.132 2.13051 9.8335 2.4987 9.8335H17.4987C17.8669 9.8335 18.1654 10.132 18.1654 10.5002C18.1654 10.8684 17.8669 11.1668 17.4987 11.1668H2.4987C2.13051 11.1668 1.83203 10.8684 1.83203 10.5002ZM2.4987 14.8335C2.13051 14.8335 1.83203 15.132 1.83203 15.5002C1.83203 15.8684 2.13051 16.1668 2.4987 16.1668H17.4987C17.8669 16.1668 18.1654 15.8684 18.1654 15.5002C18.1654 15.132 17.8669 14.8335 17.4987 14.8335H2.4987Z" fill="#33363D"/>
</svg>
