<svg width="33" height="32" viewBox="0 0 33 32" fill="none" xmlns="http://www.w3.org/2000/svg">
<path fill-rule="evenodd" clip-rule="evenodd" d="M15.9008 9.75254L13.6786 7.46683H6.13542C5.84086 7.46683 5.60208 7.70561 5.60208 8.00016V24.0002C5.60208 24.2947 5.84087 24.5335 6.13542 24.5335H27.4688C27.7633 24.5335 28.0021 24.2947 28.0021 24.0002V10.2859C28.0021 9.99132 27.7633 9.75254 27.4688 9.75254H15.9008ZM14.5799 5.3335H6.13542C4.66266 5.3335 3.46875 6.5274 3.46875 8.00016V24.0002C3.46875 25.4729 4.66266 26.6668 6.13542 26.6668H27.4688C28.9415 26.6668 30.1354 25.4729 30.1354 24.0002V10.2859C30.1354 8.81312 28.9415 7.61921 27.4688 7.61921H16.8021L14.5799 5.3335ZM19.7354 18.4002H16.8021V16.2668H19.7354V13.3335H21.8688V16.2668H24.8021V18.4002H21.8688V21.3335H19.7354V18.4002Z" fill="#303336"/>
</svg>
