<svg width="16" height="17" viewBox="0 0 16 17" fill="none" xmlns="http://www.w3.org/2000/svg">
<path fill-rule="evenodd" clip-rule="evenodd" d="M3.06667 3.70001C3.06666 3.62637 3.12636 3.56667 3.2 3.56667H7.73275C8.0273 3.56667 8.26608 3.32789 8.26608 3.03333C8.26608 2.73878 8.0273 2.5 7.73275 2.5H3.2C2.53721 2.5 1.99994 3.03733 2 3.70011L2.00091 13.3002C2.00098 13.9629 2.53822 14.5001 3.20091 14.5001H12.7994C13.4622 14.5001 13.9994 13.9629 13.9994 13.3001V8.7668C13.9994 8.47225 13.7606 8.23346 13.4661 8.23346C13.1715 8.23346 12.9327 8.47225 12.9327 8.7668V13.3001C12.9327 13.3738 12.8731 13.4335 12.7994 13.4335H3.20091C3.12728 13.4335 3.06759 13.3738 3.06758 13.3001L3.06667 3.70001ZM9.33281 3.03333C9.33281 3.32789 9.57159 3.56667 9.86615 3.56667H12.1786L6.95569 8.78954C6.74741 8.99782 6.74741 9.33551 6.95569 9.54379C7.16397 9.75207 7.50166 9.75207 7.70994 9.54379L12.9328 4.32091V6.63346C12.9328 6.92802 13.1716 7.1668 13.4661 7.1668C13.7607 7.1668 13.9995 6.92802 13.9995 6.63346V3.03333C13.9995 2.73878 13.7607 2.5 13.4661 2.5H9.86615C9.57159 2.5 9.33281 2.73878 9.33281 3.03333Z" fill="#256EF4"/>
</svg>
