<svg width="21" height="20" viewBox="0 0 21 20" fill="none" xmlns="http://www.w3.org/2000/svg">
<path fill-rule="evenodd" clip-rule="evenodd" d="M3.83333 9.08358C3.83333 5.90794 6.4077 3.33358 9.58333 3.33358C12.759 3.33358 15.3333 5.90794 15.3333 9.08358C15.3333 10.5945 14.7506 11.9693 13.7976 12.9955C13.7346 13.0268 13.6755 13.0687 13.623 13.1212C13.5704 13.1738 13.5285 13.233 13.4971 13.2961C12.4707 14.2501 11.0952 14.8336 9.58333 14.8336C6.4077 14.8336 3.83333 12.2592 3.83333 9.08358ZM14.0996 14.5406C12.8737 15.5564 11.2998 16.1669 9.58333 16.1669C5.67132 16.1669 2.5 12.9956 2.5 9.08358C2.5 5.17156 5.67132 2.00024 9.58333 2.00024C13.4953 2.00024 16.6667 5.17156 16.6667 9.08358C16.6667 10.799 16.0569 12.372 15.0422 13.5976L17.8065 16.3619C18.0668 16.6222 18.0668 17.0443 17.8065 17.3047C17.5461 17.565 17.124 17.565 16.8637 17.3047L14.0996 14.5406Z" fill="#33363D"/>
</svg>
