<svg width="20" height="20" viewBox="0 0 20 20" fill="none" xmlns="http://www.w3.org/2000/svg">
<path fill-rule="evenodd" clip-rule="evenodd" d="M9.1835 1.3335C8.88065 1.3335 8.61586 1.53762 8.53878 1.83049L8.11675 3.43417L6.69094 4.0352L5.64176 3.10202C5.37795 2.86738 4.97695 2.87911 4.72729 3.12876L3.12729 4.72876C2.88573 4.97032 2.86586 5.3554 3.08128 5.62055L3.99523 6.74547L3.40916 8.1864L1.84718 8.55094C1.54547 8.62136 1.33203 8.89034 1.33203 9.20016V10.8002C1.33203 11.1007 1.53316 11.3641 1.82312 11.4433L3.43122 11.8823L4.03336 13.3107L3.10106 14.3565C2.86593 14.6203 2.87743 15.0217 3.12729 15.2716L4.72729 16.8716C4.96913 17.1134 5.35474 17.133 5.61985 16.917L6.74508 16L8.15214 16.5788L8.55232 18.1634C8.62708 18.4594 8.89338 18.6668 9.1987 18.6668H10.7987C11.1038 18.6668 11.37 18.4597 11.445 18.1638L11.8464 16.5787L13.2967 15.9781C13.4445 16.1008 13.6216 16.2525 13.7956 16.4039C13.9459 16.5348 14.0857 16.6582 14.1879 16.7488L14.3093 16.8569L14.3536 16.8965C14.6172 17.1329 15.0197 17.122 15.2701 16.8716L16.8701 15.2716C17.1154 15.0262 17.1316 14.6337 16.9072 14.3691L15.983 13.2789L16.5788 11.8402L18.1665 11.4271C18.4602 11.3507 18.6653 11.0855 18.6653 10.782L18.6654 9.2002C18.6654 8.89527 18.4585 8.62921 18.163 8.55406L16.5847 8.15272L15.9898 6.71624L16.9078 5.63061C17.1316 5.36591 17.1152 4.97387 16.8701 4.72876L15.2701 3.12876C15.024 2.8827 14.6301 2.86728 14.3656 3.09335L13.2871 4.01497L11.8054 3.40561L11.3917 1.83078C11.3148 1.53777 11.0499 1.3335 10.7469 1.3335H9.1835ZM9.32269 4.09073L9.69742 2.66683H10.2328L10.6001 4.06533C10.6532 4.26748 10.7981 4.43303 10.9914 4.51252L13.1569 5.40309C13.3883 5.49823 13.6534 5.45585 13.8436 5.29334L14.7632 4.50745L15.4937 5.23797L14.7094 6.16556C14.5483 6.35607 14.5071 6.62058 14.6025 6.85108L15.4807 8.97156C15.5611 9.16584 15.7285 9.31077 15.9323 9.36259L17.332 9.71851L17.332 10.2665L15.9219 10.6334C15.7197 10.686 15.5538 10.8304 15.4739 11.0235L14.5955 13.1446C14.4999 13.3754 14.5414 13.6403 14.7029 13.8308L15.4931 14.7629L14.7707 15.4853L14.671 15.3983C14.374 15.1397 13.9987 14.8191 13.7905 14.6702C13.6033 14.5364 13.3603 14.5086 13.1477 14.5966L11.0272 15.4748C10.8327 15.5553 10.6877 15.723 10.636 15.927L10.2798 17.3335H9.71793L9.36267 15.9268C9.31096 15.722 9.16526 15.5538 8.96993 15.4735L6.88526 14.6159C6.65906 14.5228 6.40007 14.5611 6.21047 14.7156L5.24432 15.503L4.51523 14.7739L5.30893 13.8835C5.48015 13.6915 5.52556 13.4181 5.42561 13.181L4.5339 11.0656C4.45439 10.877 4.29263 10.7353 4.09516 10.6814L2.66536 10.2911V9.72916L4.04821 9.40642C4.25895 9.35724 4.43271 9.20883 4.51424 9.00838L5.37893 6.88242C5.47059 6.65706 5.43222 6.39968 5.27881 6.21086L4.49525 5.24642L5.22548 4.51619L6.11917 5.31107C6.31121 5.48188 6.58435 5.52708 6.82118 5.42725L8.93693 4.53538C9.12754 4.45504 9.27005 4.29077 9.32269 4.09073ZM10 6.83358C8.25106 6.83358 6.83333 8.2513 6.83333 10.0002C6.83333 11.7492 8.25106 13.1669 10 13.1669C11.7489 13.1669 13.1667 11.7492 13.1667 10.0002C13.1667 8.2513 11.7489 6.83358 10 6.83358ZM8.16667 10.0002C8.16667 8.98768 8.98744 8.16691 10 8.16691C11.0126 8.16691 11.8333 8.98768 11.8333 10.0002C11.8333 11.0128 11.0126 11.8336 10 11.8336C8.98744 11.8336 8.16667 11.0128 8.16667 10.0002Z" fill="#33363D"/>
</svg>
