<svg width="24" height="16" viewBox="0 0 24 16" fill="none" xmlns="http://www.w3.org/2000/svg">
<g clip-path="url(#clip0_9064_25350)">
<path d="M0 0H24V16H0V0Z" fill="white"/>
<path d="M8.67188 5.78101C9.26036 4.89834 10.1754 4.2856 11.2157 4.07757C12.2559 3.86955 13.3362 4.08329 14.2189 4.67176C15.1016 5.26024 15.7144 6.17525 15.9224 7.21551C16.1304 8.25576 15.9167 9.33605 15.3282 10.2187L8.67188 5.78101Z" fill="#D0303C"/>
<path d="M8.67202 5.78102C8.08353 6.66369 7.86979 7.74398 8.07781 8.78424C8.28583 9.8245 8.89858 10.7395 9.78126 11.328C10.6639 11.9165 11.7442 12.1302 12.7845 11.9222C13.8248 11.7142 14.7398 11.1014 15.3283 10.2188C15.6225 9.77744 15.7294 9.23729 15.6254 8.71716C15.5214 8.19703 15.215 7.73952 14.7737 7.44528C14.3323 7.15104 13.7922 7.04417 13.272 7.14818C12.7519 7.25219 12.2944 7.55856 12.0002 7.9999L8.67202 5.78102Z" fill="#134A9D"/>
<path d="M12.0001 7.99989C12.6128 7.08086 12.3645 5.83912 11.4454 5.22639C10.5264 4.61366 9.28467 4.86197 8.67194 5.78101C8.05921 6.70004 8.30752 7.94178 9.22656 8.55451C10.1456 9.16724 11.3873 8.91893 12.0001 7.99989Z" fill="#D0303C"/>
<path d="M3.67977 4.85652L5.89858 1.52832L6.45328 1.89812L4.23447 5.22632L3.67977 4.85652ZM4.51182 5.41122L6.73063 2.08302L7.28533 2.45282L5.06652 5.78102L4.51182 5.41122ZM5.34387 5.96592L7.56268 2.63772L8.11738 3.00752L5.89858 6.33572L5.34387 5.96592Z" fill="black"/>
<path d="M19.3038 12.6685L20.3207 11.1431L19.766 10.7733L18.7491 12.2987L19.3038 12.6685Z" fill="black"/>
<path d="M18.4718 12.1138L19.4887 10.5884L18.934 10.2186L17.9171 11.744L18.4718 12.1138Z" fill="black"/>
<path d="M17.7322 12.0213L18.2869 12.3911L17.2699 13.9166L16.7152 13.5468L17.7322 12.0213Z" fill="black"/>
<path d="M17.6397 11.5591L18.6566 10.0337L18.1019 9.66393L17.085 11.1893L17.6397 11.5591Z" fill="black"/>
<path d="M16.9001 11.4666L17.4548 11.8364L16.4378 13.3619L15.8831 12.9921L16.9001 11.4666Z" fill="black"/>
<path d="M18.5642 12.576L19.1189 12.9458L18.1019 14.4713L17.5472 14.1015L18.5642 12.576Z" fill="black"/>
<path d="M17.4547 4.16337L16.4377 2.63789L15.883 3.00769L16.9 4.53317L17.4547 4.16337Z" fill="black"/>
<path d="M17.0849 4.81052L18.1018 6.33589L18.6565 5.96609L17.6396 4.44072L17.0849 4.81052Z" fill="black"/>
<path d="M18.9339 5.78119L16.7151 2.45299L17.2698 2.08319L19.4886 5.41139L18.9339 5.78119Z" fill="black"/>
<path d="M19.7659 5.22649L18.749 3.70109L19.3037 3.33129L20.3206 4.85669L19.7659 5.22649Z" fill="black"/>
<path d="M19.1188 3.05394L18.5641 3.42374L17.5471 1.89829L18.1018 1.52849L19.1188 3.05394Z" fill="black"/>
<path d="M3.67969 11.1433L5.89849 14.4715L6.45319 14.1017L4.23439 10.7735L3.67969 11.1433Z" fill="black"/>
<path d="M5.7136 12.3914L6.73054 13.9168L7.28524 13.547L6.2683 12.0216L5.7136 12.3914Z" fill="black"/>
<path d="M5.5287 12.114L6.0834 11.7442L5.06644 10.2188L4.51174 10.5886L5.5287 12.114Z" fill="black"/>
<path d="M5.34379 10.0339L7.56259 13.3621L8.11729 12.9923L5.89849 9.66409L5.34379 10.0339Z" fill="black"/>
</g>
<defs>
<clipPath id="clip0_9064_25350">
<rect width="24" height="16" fill="white"/>
</clipPath>
</defs>
</svg>
