<svg width="28" height="28" viewBox="0 0 28 28" fill="none" xmlns="http://www.w3.org/2000/svg">
<rect x="27.3359" y="0.666748" width="26.6667" height="26.6667" rx="13.3333" transform="rotate(90 27.3359 0.666748)" fill="#CDD1D5"/>
<path fill-rule="evenodd" clip-rule="evenodd" d="M8.75451 7.24601C8.33795 6.82945 7.66257 6.82945 7.24601 7.24601C6.82945 7.66257 6.82945 8.33795 7.24601 8.75451L12.4928 14.0013L7.2481 19.246C6.83154 19.6626 6.83154 20.338 7.2481 20.7545C7.66465 21.1711 8.34003 21.1711 8.75659 20.7545L14.0013 15.5098L19.246 20.7545C19.6626 21.1711 20.3379 21.1711 20.7545 20.7545C21.1711 20.338 21.1711 19.6626 20.7545 19.246L15.5098 14.0013L20.7566 8.75451C21.1732 8.33795 21.1732 7.66257 20.7566 7.24601C20.34 6.82945 19.6647 6.82945 19.2481 7.24601L14.0013 12.4928L8.75451 7.24601Z" fill="#33363D"/>
</svg>
