<svg width="28" height="26" viewBox="0 0 28 26" fill="none" xmlns="http://www.w3.org/2000/svg">
<path opacity="0.15" d="M7.33203 1.66699H20.6654V12.3337C20.6654 16.0156 17.6806 19.0003 13.9987 19.0003C10.3168 19.0003 7.33203 16.0156 7.33203 12.3337V1.66699Z" fill="#1A80E5"/>
<path fill-rule="evenodd" clip-rule="evenodd" d="M6.26693 1.66676C6.26693 1.07766 6.74449 0.600098 7.33359 0.600098H20.6669C21.256 0.600098 21.7336 1.07766 21.7336 1.66676V3.26676H22.6669C25.097 3.26676 27.0669 5.23671 27.0669 7.66676C27.0669 10.0968 25.097 12.0668 22.6669 12.0668H21.7336V12.3334C21.7336 16.2425 18.8332 19.4742 15.0669 19.9938V23.2668H19.3336C19.9227 23.2668 20.4003 23.7443 20.4003 24.3334C20.4003 24.9225 19.9227 25.4001 19.3336 25.4001H8.66693C8.07782 25.4001 7.60026 24.9225 7.60026 24.3334C7.60026 23.7443 8.07782 23.2668 8.66693 23.2668H12.9336V19.9938C9.16736 19.4742 6.26693 16.2425 6.26693 12.3334V12.0668H5.33359C2.90354 12.0668 0.933594 10.0968 0.933594 7.66676C0.933594 5.23671 2.90354 3.26676 5.33359 3.26676H6.26693V1.66676ZM6.26693 5.4001H5.33359C4.08175 5.4001 3.06693 6.41492 3.06693 7.66676C3.06693 8.91861 4.08175 9.93343 5.33359 9.93343H6.26693V5.4001ZM8.40026 2.73343H19.6003V12.3334C19.6003 15.4262 17.0931 17.9334 14.0003 17.9334C10.9075 17.9334 8.40026 15.4262 8.40026 12.3334V2.73343ZM21.7336 9.93343H22.6669C23.9188 9.93343 24.9336 8.91861 24.9336 7.66676C24.9336 6.41492 23.9188 5.4001 22.6669 5.4001H21.7336V9.93343Z" fill="#1A80E5"/>
</svg>
