<svg width="16" height="16" viewBox="0 0 16 16" fill="none" xmlns="http://www.w3.org/2000/svg">
<path fill-rule="evenodd" clip-rule="evenodd" d="M2.53151 7.33345C2.53151 7.19482 2.62643 6.88767 2.91369 6.456C3.18666 6.04581 3.59109 5.58693 4.09958 5.15764C5.1218 4.29464 6.50426 3.60011 7.99818 3.60011C9.49209 3.60011 10.8746 4.29464 11.8968 5.15764C12.4053 5.58693 12.8097 6.04581 13.0827 6.456C13.3699 6.88767 13.4648 7.19482 13.4648 7.33345C13.4648 7.41186 13.4309 7.56059 13.307 7.77661C13.1604 8.0321 13.2487 8.35804 13.5041 8.50463C13.7596 8.65121 14.0856 8.56293 14.2322 8.30744C14.406 8.0044 14.5315 7.66847 14.5315 7.33345C14.5315 6.87208 14.2906 6.34589 13.9707 5.86506C13.6364 5.36275 13.1622 4.82997 12.5849 4.34259C11.4355 3.37225 9.81797 2.53345 7.99818 2.53345C6.17839 2.53345 4.56085 3.37225 3.41149 4.34259C2.83419 4.82997 2.35995 5.36275 2.02568 5.86506C1.70571 6.34589 1.46484 6.87208 1.46484 7.33345C1.46484 7.79482 1.70571 8.32101 2.02568 8.80183C2.35995 9.30414 2.83419 9.83693 3.41149 10.3243C4.56085 11.2946 6.17839 12.1334 7.99818 12.1334C8.29273 12.1334 8.53151 11.8947 8.53151 11.6001C8.53151 11.3056 8.29273 11.0668 7.99818 11.0668C6.50426 11.0668 5.1218 10.3723 4.09958 9.50926C3.59109 9.07997 3.18666 8.62109 2.91369 8.2109C2.62643 7.77922 2.53151 7.47208 2.53151 7.33345ZM6.28151 7.33345C6.28151 6.45537 7.02936 5.70678 7.99818 5.70678C8.96699 5.70678 9.71484 6.45537 9.71484 7.33345C9.71484 8.21152 8.96699 8.96011 7.99818 8.96011C7.02936 8.96011 6.28151 8.21152 6.28151 7.33345ZM7.99818 4.64011C6.48171 4.64011 5.21484 5.82565 5.21484 7.33345C5.21484 8.84124 6.48171 10.0268 7.99818 10.0268C9.51464 10.0268 10.7815 8.84124 10.7815 7.33345C10.7815 5.82565 9.51464 4.64011 7.99818 4.64011ZM13.5103 9.5117V10.9876L13.8649 10.9876C14.0121 10.9876 14.1315 11.1069 14.1315 11.2542V11.5835C14.1315 11.7308 14.0121 11.8502 13.8649 11.8502H13.5103V13.8665C13.5103 14.0138 13.3909 14.1332 13.2436 14.1332H12.783C12.6357 14.1332 12.5163 14.0138 12.5163 13.8665V9.5117C12.5163 9.36443 12.6357 9.24504 12.783 9.24504H13.2436C13.3909 9.24504 13.5103 9.36443 13.5103 9.5117ZM11.7752 11.8579C11.4485 12.4242 10.9387 12.9106 10.1945 13.2952C10.0779 13.3554 9.93634 13.3202 9.85992 13.2164L9.61066 12.8779C9.51177 12.7436 9.56014 12.5571 9.70176 12.4811C10.5942 12.0015 11.0821 11.4026 11.2316 10.5724H10.0354C9.88808 10.5724 9.76869 10.453 9.76869 10.3057V9.97637C9.76869 9.8291 9.88808 9.70971 10.0354 9.70971H11.991C12.1374 9.70971 12.2597 9.82898 12.2561 9.97954C12.24 10.6564 12.1014 11.2926 11.7752 11.8579ZM13.377 9.5117C13.377 9.43807 13.3173 9.37837 13.2436 9.37837H12.783C12.7742 9.37837 12.7657 9.37921 12.7574 9.38082C12.7655 9.37929 12.7738 9.3785 12.7823 9.3785H13.243C13.3166 9.3785 13.3763 9.4382 13.3763 9.51183V10.9877C13.3763 11.0613 13.436 11.121 13.5096 11.121H13.8642C13.9378 11.121 13.9975 11.1807 13.9975 11.2543V11.5837C13.9975 11.6486 13.9512 11.7026 13.8898 11.7146C13.9515 11.7029 13.9982 11.6487 13.9982 11.5835V11.2542C13.9982 11.1806 13.9385 11.1209 13.8649 11.1209H13.5103C13.4366 11.1209 13.377 11.0612 13.377 10.9876V9.5117ZM13.3763 11.8503C13.3763 11.7852 13.423 11.731 13.4847 11.7193C13.4233 11.7313 13.377 11.7853 13.377 11.8502V13.8665C13.377 13.9316 13.3303 13.9858 13.2685 13.9975C13.3299 13.9856 13.3763 13.9315 13.3763 13.8666V11.8503ZM12.1228 9.97637C12.1245 9.90276 12.0647 9.84304 11.991 9.84304H10.0354C10.0266 9.84304 10.0181 9.84388 10.0098 9.84549C10.0179 9.84397 10.0262 9.84317 10.0347 9.84317H11.9904C12.064 9.84317 12.1239 9.90289 12.1221 9.9765C12.0907 11.2982 11.5819 12.4278 10.1326 13.1769C10.1215 13.1826 10.1099 13.1866 10.0982 13.1889C10.1102 13.1866 10.122 13.1826 10.1333 13.1768C11.5825 12.4277 12.0914 11.298 12.1228 9.97637Z" fill="#33363D"/>
</svg>
